<?xml version="1.0" encoding="utf-8"?><svg viewBox="0 0 20 20" xmlns="http://www.w3.org/2000/svg" xmlns:xlink="http://www.w3.org/1999/xlink"><style>:root>svg{display:none}:root>svg:target{display:block}</style><svg fill="none" viewBox="0 0 20 20" id="facebook" xmlns="http://www.w3.org/2000/svg"><path d="M10 19.333A9.333 9.333 0 1110 .667a9.333 9.333 0 010 18.666zm0 0V8.667A2.667 2.667 0 0112.667 6h.666m-6.666 5.333h6.666" stroke="#666B73"/></svg><svg fill="none" viewBox="0 0 20 20" id="instagram" xmlns="http://www.w3.org/2000/svg"><path d="M14.667 4.667H16m-10-4h8A5.333 5.333 0 0119.333 6v8A5.333 5.333 0 0114 19.333H6A5.333 5.333 0 01.667 14V6A5.333 5.333 0 016 .667zM10 14a4 4 0 110-8 4 4 0 010 8z" stroke="#666B73"/></svg><svg fill="none" viewBox="0 0 20 20" id="linkedin" xmlns="http://www.w3.org/2000/svg"><path d="M6 8v6.667m8 0v-3.334a2.667 2.667 0 10-5.333 0v3.334V8M5.333 6h1.334M2 .667h16c.736 0 1.333.597 1.333 1.333v16c0 .736-.597 1.333-1.333 1.333H2A1.333 1.333 0 01.667 18V2C.667 1.264 1.264.667 2 .667z" stroke="#666B73"/></svg><svg fill="none" viewBox="0 0 20 20" id="pinterest" xmlns="http://www.w3.org/2000/svg"><path d="M6 18l4-9.333m-4.315 4A3.985 3.985 0 014.667 10v-.667a4.667 4.667 0 014.666-4.666h1.334a4.667 4.667 0 014.666 4.666V10a4 4 0 01-4 4 2.775 2.775 0 01-2.632-1.897L8.667 12M10 19.333A9.333 9.333 0 1110 .667a9.333 9.333 0 010 18.666z" stroke="#666B73"/></svg><svg fill="none" viewBox="0 0 15 15" id="search" xmlns="http://www.w3.org/2000/svg"><path d="M14.5 14.5l-4-4m-4 2a6 6 0 110-12 6 6 0 010 12z" stroke="#2B2B2B"/></svg><svg fill="none" viewBox="0 0 20 20" id="twitter" xmlns="http://www.w3.org/2000/svg"><path d="M19.305 2l.498-.033a.5.5 0 00-.87-.301l.372.334zm-.832 3.945a.5.5 0 00-1 0h1zm-8.487.11h-.5.5zm0 1.278h.5-.5zm-9.32 9.334v-.5a.5.5 0 00-.277.915l.278-.415zM1.999 2l.468-.175a.5.5 0 00-.915-.048L1.998 2zm5.325 12l.354.353a.5.5 0 00-.196-.827L7.323 14zm9.632-10.702l-.371.335.18.2.266-.04-.075-.495zm1.85-1.265c.07 1.046.008 1.702-.172 2.207-.175.496-.48.896-1.006 1.399l.692.722c.576-.551 1.006-1.08 1.257-1.786.247-.696.3-1.512.227-2.608l-.997.066zm-.332 4.884v-.972h-1v.972h1zm-8.987-.862v1.278h1V6.055h-1zm0 1.278V8h1v-.667h-1zM14.034 1.5a4.552 4.552 0 00-4.548 4.555h1A3.552 3.552 0 0114.034 2.5v-1zm3.44 5.417c0 5.845-4.732 10.583-10.567 10.583v1c6.389 0 11.566-5.187 11.566-11.583h-1zM1.53 2.175c.71 1.896 3.383 5.658 8.456 5.658v-1c-4.512 0-6.898-3.348-7.52-5.008l-.936.35zm.02-.398C.172 4.54-.031 7.199.959 9.45c.988 2.249 3.12 3.993 6.207 5.023l.316-.948c-2.904-.97-4.765-2.559-5.608-4.477-.84-1.914-.71-4.256.572-6.826l-.894-.446zm5.42 11.87c-.825.825-3.278 2.52-6.303 2.52v1c3.365 0 6.059-1.861 7.01-2.814l-.708-.706zM17.325 2.963A4.426 4.426 0 0014.034 1.5v1c1.011 0 1.92.436 2.55 1.133l.742-.67zm-.296.83c.974-.148 1.929-.661 2.646-1.459l-.743-.668c-.569.632-1.317 1.026-2.053 1.137l.15.99zM.389 17.082C2.529 18.51 4.772 18.5 6.907 18.5v-1c-2.168 0-4.109-.011-5.963-1.25l-.555.832z" fill="#666B73"/></svg><svg fill="none" viewBox="0 0 20 20" id="youtube" xmlns="http://www.w3.org/2000/svg"><path d="M2.148 16.984l-.105.489.105-.489zm15.704 0l.105.489-.105-.489zm0-13.968l.105-.489-.105.489zm-15.704 0l.105.489-.105-.49zm6.519 4.317l.277-.416a.5.5 0 00-.777.416h.5zm0 5.334h-.5a.5.5 0 00.777.416l-.277-.416zm4-2.667l.277.416a.5.5 0 000-.832l-.277.416zM.167 4.848v10.304h1V4.848h-1zm19.666 10.304V4.848h-1v10.304h1zm-17.79 2.321a37.977 37.977 0 0015.914 0l-.21-.978a36.977 36.977 0 01-15.494 0l-.21.978zM17.957 2.527a37.976 37.976 0 00-15.914 0l.21.978a36.975 36.975 0 0115.494 0l.21-.978zm1.876 2.321c0-1.12-.782-2.086-1.876-2.321l-.21.978a1.374 1.374 0 011.086 1.343h1zm-1 10.304c0 .648-.452 1.207-1.086 1.343l.21.978a2.374 2.374 0 001.876-2.321h-1zm-18.666 0c0 1.12.782 2.086 1.876 2.321l.21-.978a1.374 1.374 0 01-1.086-1.343h-1zm1-10.304c0-.648.452-1.207 1.086-1.343l-.21-.978A2.374 2.374 0 00.167 4.848h1zm7 2.485v5.334h1V7.333h-1zm.777 5.75l4-2.667-.555-.832-4 2.667.555.832zm4-3.499l-4-2.667-.555.832 4 2.667.555-.832z" fill="#666B73"/></svg></svg>