<svg width="20" height="20" viewBox="0 0 20 20" fill="none" xmlns="http://www.w3.org/2000/svg">
<path d="M14.6667 4.66669H16M6.00002 0.666687H14C16.9455 0.666687 19.3334 3.0545 19.3334 6.00002V14C19.3334 16.9455 16.9455 19.3334 14 19.3334H6.00002C3.0545 19.3334 0.666687 16.9455 0.666687 14V6.00002C0.666687 3.0545 3.0545 0.666687 6.00002 0.666687ZM10 14C7.79088 14 6.00002 12.2092 6.00002 10C6.00002 7.79088 7.79088 6.00002 10 6.00002C12.2092 6.00002 14 7.79088 14 10C14 12.2092 12.2092 14 10 14Z" stroke="#666B73"/>
</svg>
