<svg width="20" height="20" viewBox="0 0 20 20" fill="none" xmlns="http://www.w3.org/2000/svg">
<path d="M5.99999 18L9.99999 8.66669M5.68518 12.6667C5.05179 11.959 4.66666 11.0245 4.66666 10V9.33335C4.66666 6.75602 6.75599 4.66669 9.33332 4.66669H10.6667C13.244 4.66669 15.3333 6.75602 15.3333 9.33335V10C15.3333 12.2092 13.5425 14 11.3333 14C10.1389 14 9.07856 13.2357 8.70087 12.1027L8.66666 12M9.99999 19.3334C4.84533 19.3334 0.666656 15.1547 0.666656 10C0.666656 4.84536 4.84533 0.666687 9.99999 0.666687C15.1546 0.666687 19.3333 4.84536 19.3333 10C19.3333 15.1547 15.1546 19.3334 9.99999 19.3334Z" stroke="#666B73"/>
</svg>
