<svg width="20" height="20" viewBox="0 0 20 20" fill="none" xmlns="http://www.w3.org/2000/svg">
<path d="M19.3045 2L19.8034 1.96692C19.7902 1.76635 19.658 1.59324 19.4681 1.5275C19.2781 1.46176 19.0673 1.51616 18.9328 1.6656L19.3045 2ZM18.4733 5.94521C18.4733 5.66906 18.2494 5.44521 17.9733 5.44521C17.6971 5.44521 17.4733 5.66906 17.4733 5.94521H18.4733ZM9.98562 6.0548H9.48562H9.98562ZM9.98562 7.33333L10.4856 7.33333V7.33333L9.98562 7.33333ZM0.666687 16.6667V16.1667C0.446419 16.1667 0.252098 16.3108 0.188193 16.5216C0.124287 16.7324 0.205854 16.9602 0.38904 17.0825L0.666687 16.6667ZM1.99796 2L2.46622 1.82468C2.39645 1.63834 2.22284 1.5111 2.02414 1.50069C1.82545 1.49027 1.63948 1.59865 1.55061 1.77667L1.99796 2ZM7.32306 14L7.67689 14.3533C7.79925 14.2307 7.84949 14.0536 7.80967 13.885C7.76986 13.7165 7.64566 13.5806 7.4814 13.5257L7.32306 14ZM16.9548 3.29784L16.5839 3.63318L16.764 3.83243L17.0296 3.7922L16.9548 3.29784ZM18.8056 2.03308C18.875 3.07852 18.8128 3.73487 18.6334 4.24046C18.4578 4.7356 18.1521 5.13612 17.6273 5.63899L18.3192 6.36101C18.8945 5.80973 19.3254 5.28083 19.5759 4.57479C19.8227 3.8792 19.8761 3.06262 19.8034 1.96692L18.8056 2.03308ZM18.4733 6.91666V5.94521H17.4733V6.91666H18.4733ZM9.48562 6.0548L9.48562 7.33333L10.4856 7.33333L10.4856 6.05479L9.48562 6.0548ZM9.48562 7.33333L9.48562 8L10.4856 8L10.4856 7.33333L9.48562 7.33333ZM14.0342 1.5C11.5213 1.5 9.48562 3.53998 9.48562 6.0548H10.4856C10.4856 4.09081 12.0751 2.5 14.0342 2.5V1.5ZM17.4733 6.91666C17.4733 12.7624 12.7419 17.5 6.90703 17.5V18.5C13.2956 18.5 18.4733 13.3132 18.4733 6.91666H17.4733ZM1.52971 2.17532C2.23949 4.071 4.91254 7.83333 9.98562 7.83333V6.83333C5.47351 6.83333 3.08771 3.48455 2.46622 1.82468L1.52971 2.17532ZM1.55061 1.77667C0.171066 4.54002 -0.0318117 7.19861 0.957757 9.45111C1.94559 11.6997 4.07791 13.4437 7.16473 14.4743L7.4814 13.5257C4.57747 12.5563 2.71597 10.967 1.8733 9.04889C1.03237 7.13472 1.16231 4.79331 2.44531 2.22333L1.55061 1.77667ZM6.96924 13.6467C6.14525 14.472 3.69155 16.1667 0.666687 16.1667V17.1667C4.03195 17.1667 6.72587 15.3058 7.67689 14.3533L6.96924 13.6467ZM17.3256 2.9625C16.5142 2.06507 15.3398 1.5 14.0342 1.5V2.5C15.0451 2.5 15.9538 2.93638 16.5839 3.63318L17.3256 2.9625ZM17.0296 3.7922C18.004 3.64463 18.9589 3.13186 19.6763 2.3344L18.9328 1.6656C18.3642 2.29766 17.6165 2.69192 16.8799 2.80348L17.0296 3.7922ZM0.38904 17.0825C2.52895 18.5113 4.77234 18.5 6.90703 18.5V17.5C4.7393 17.5 2.79825 17.4887 0.944334 16.2508L0.38904 17.0825Z" fill="#666B73"/>
</svg>
