<svg width="20" height="20" viewBox="0 0 20 20" fill="none" xmlns="http://www.w3.org/2000/svg">
<path d="M2.14785 16.9841L2.04308 17.473L2.14785 16.9841ZM17.8522 16.9841L17.957 17.473L17.8522 16.9841ZM17.8522 3.01594L17.957 2.52704L17.8522 3.01594ZM2.14785 3.01594L2.25261 3.50485L2.14785 3.01594ZM8.66669 7.33334L8.94404 6.91731C8.79061 6.81502 8.59334 6.80549 8.43076 6.8925C8.26818 6.97951 8.16669 7.14894 8.16669 7.33334H8.66669ZM8.66669 12.6667H8.16669C8.16669 12.8511 8.26818 13.0205 8.43076 13.1075C8.59334 13.1945 8.79061 13.185 8.94404 13.0827L8.66669 12.6667ZM12.6667 10L12.944 10.416C13.0831 10.3233 13.1667 10.1672 13.1667 10C13.1667 9.83283 13.0831 9.67671 12.944 9.58398L12.6667 10ZM0.166687 4.84812V15.1519H1.16669V4.84812H0.166687ZM19.8334 15.1519V4.84812H18.8334V15.1519H19.8334ZM2.04308 17.473C7.28817 18.5969 12.7119 18.5969 17.957 17.473L17.7474 16.4952C12.6405 17.5895 7.35958 17.5895 2.25261 16.4952L2.04308 17.473ZM17.957 2.52704C12.7119 1.4031 7.28817 1.4031 2.04308 2.52704L2.25261 3.50485C7.35958 2.41049 12.6405 2.41049 17.7474 3.50485L17.957 2.52704ZM19.8334 4.84812C19.8334 3.7288 19.0514 2.76157 17.957 2.52704L17.7474 3.50485C18.3808 3.64057 18.8334 4.20034 18.8334 4.84812H19.8334ZM18.8334 15.1519C18.8334 15.7997 18.3808 16.3594 17.7474 16.4952L17.957 17.473C19.0514 17.2384 19.8334 16.2712 19.8334 15.1519H18.8334ZM0.166687 15.1519C0.166687 16.2712 0.948606 17.2384 2.04308 17.473L2.25261 16.4952C1.61921 16.3594 1.16669 15.7997 1.16669 15.1519H0.166687ZM1.16669 4.84812C1.16669 4.20034 1.61921 3.64057 2.25261 3.50485L2.04308 2.52704C0.948606 2.76157 0.166687 3.7288 0.166687 4.84812H1.16669ZM8.16669 7.33334V12.6667H9.16669V7.33334H8.16669ZM8.94404 13.0827L12.944 10.416L12.3893 9.58398L8.38934 12.2506L8.94404 13.0827ZM12.944 9.58398L8.94404 6.91731L8.38934 7.74936L12.3893 10.416L12.944 9.58398Z" fill="#666B73"/>
</svg>
